<svg width="512" height="512" viewBox="0 0 512 512" fill="none" xmlns="http://www.w3.org/2000/svg">
<rect width="512" height="512" fill="#1E1E1E"/>
<path d="M199.311 245.035V332.633C195.697 336.637 190.131 340.934 182.611 345.523C175.189 350.016 165.814 353.873 154.486 357.096C143.158 360.318 129.828 361.93 114.496 361.93C100.336 361.93 87.4941 359.684 75.9707 355.191C64.4473 350.602 54.5352 343.912 46.2344 335.123C38.0312 326.236 31.6836 315.396 27.1914 302.604C22.7969 289.713 20.5996 274.967 20.5996 258.365V246.5C20.5996 229.898 22.8457 215.152 27.3379 202.262C31.8301 189.371 38.1289 178.531 46.2344 169.742C54.4375 160.855 64.0566 154.117 75.0918 149.527C86.2246 144.938 98.4316 142.643 111.713 142.643C131.342 142.643 147.309 145.768 159.613 152.018C171.918 158.17 181.244 166.715 187.592 177.652C193.939 188.492 197.797 201.041 199.164 215.299H149.799C148.822 208.268 146.967 202.311 144.232 197.428C141.596 192.447 137.787 188.688 132.807 186.148C127.826 183.512 121.381 182.193 113.471 182.193C107.318 182.193 101.703 183.512 96.625 186.148C91.6445 188.785 87.3965 192.789 83.8809 198.16C80.3652 203.434 77.6309 210.074 75.6777 218.082C73.8223 226.09 72.8945 235.465 72.8945 246.207V258.365C72.8945 269.01 73.7734 278.336 75.5312 286.344C77.3867 294.352 80.1211 301.041 83.7344 306.412C87.4453 311.686 92.1328 315.689 97.7969 318.424C103.559 321.061 110.346 322.379 118.158 322.379C123.627 322.379 128.314 321.939 132.221 321.061C136.127 320.084 139.35 318.912 141.889 317.545C144.525 316.08 146.527 314.713 147.895 313.443V280.338H112.152V245.035H199.311ZM345.062 145.719H396.479V285.025C396.479 301.627 393.012 315.689 386.078 327.213C379.145 338.639 369.428 347.281 356.928 353.141C344.428 359 329.73 361.93 312.836 361.93C296.137 361.93 281.439 359 268.744 353.141C256.146 347.281 246.283 338.639 239.154 327.213C232.123 315.689 228.607 301.627 228.607 285.025V145.719H280.17V285.025C280.17 293.814 281.439 300.992 283.979 306.559C286.518 312.027 290.229 316.031 295.111 318.57C299.994 321.109 305.902 322.379 312.836 322.379C319.867 322.379 325.775 321.109 330.561 318.57C335.346 316.031 338.959 312.027 341.4 306.559C343.842 300.992 345.062 293.814 345.062 285.025V145.719ZM483.49 145.719V359H432.221V145.719H483.49Z" fill="url(#paint0_linear_101_3)"/>
<path d="M428.598 131.106C428.598 131.788 428.598 132.47 428.598 133.151C428.598 136.541 428.95 139.998 428.734 143.379C428.519 146.759 428.052 149.968 428.052 153.333C428.052 154.106 428.052 154.878 428.052 155.651C428.052 157.895 428.332 160.349 430.613 161.409C432.895 162.47 434.702 159.898 435.017 157.979C435.333 156.061 434.568 152.193 436.688 151.333C438.809 150.472 440.196 153.456 441.587 154.663C442.976 155.87 443.834 158.838 443.871 160.697C444 161.771 443.973 163.044 443.871 164.106C443.871 167.394 443.078 171.388 443.826 174.515C444.574 177.64 447.873 179.24 450.794 177.847C453.715 176.455 454.098 172.982 454.098 170.106C454.098 169.281 454.165 168.374 454.234 167.651C454.234 164.773 454.707 161.474 457.36 159.731C460.013 157.99 463.155 159.781 464.145 162.65C465.135 165.519 465.28 169.222 465.28 172.424C465.28 172.936 465.183 173.514 465.143 173.924C465.143 177.41 464.489 181.616 464.179 184.96C463.868 188.302 463.024 192.374 465.314 195.026C467.603 197.679 471.741 196.668 473.01 193.518C474.281 190.37 473.426 186.363 473.052 182.924C472.679 179.485 472.234 175.322 472.234 171.742C472.135 170.713 472.136 169.49 472.234 168.47C472.234 165.419 472.013 161.459 474.859 159.504C477.707 157.55 480.585 161.113 480.416 164.242C480.247 167.372 480.056 171.902 479.734 175.015C479.412 178.128 480.03 181.831 482.86 183.481C485.691 185.129 489.057 183.11 489.692 179.927C490.327 176.746 489.697 172.702 489.28 169.424C488.862 166.146 488.325 162.329 488.325 158.924C488.284 158.504 488.189 157.936 488.189 157.424C488.189 151.696 488.89 145.521 490.372 140.244C491.854 134.966 492.036 128.08 490.75 122.954C489.462 117.83 487.352 114.226 483.996 110.345C480.638 106.464 477.192 104.417 472.6 102.377C468.007 100.337 460.972 99.5119 455.871 100.288C450.769 101.065 446.024 102.787 441.921 105.701C437.816 108.616 435.165 111.481 432.678 115.822C430.192 120.166 428.598 125.935 428.598 131.106ZM452.189 118.288C455.437 118.694 455.772 123.167 455.007 125.606C454.242 128.047 452.64 131.272 449.462 130.833C446.283 130.394 445.96 125.962 446.732 123.603C447.502 121.243 449.13 117.906 452.189 118.288ZM473.598 123.606C476.725 124.113 477.019 128.514 476.282 130.926C475.542 133.338 473.937 136.554 470.779 136.106C467.621 135.659 467.276 131.192 468.006 128.786C468.735 126.381 470.58 123.116 473.598 123.606ZM468.28 146.924C467.117 147.191 466.247 147.65 465.052 147.924C463.856 148.198 462.476 148.382 461.189 148.424C459.902 148.466 458.403 148.271 457.225 148.025C456.045 147.779 454.957 147.456 453.93 146.956C452.903 146.455 451.995 146.2 451.087 145.571C450.177 144.943 449.474 144.356 448.612 143.683C447.75 143.009 447.329 142.128 446.564 141.367C445.8 140.606 445.593 139.036 446.902 138.637C448.211 138.239 448.765 139.546 449.564 140.276C450.363 141.007 450.84 141.706 451.746 142.322C452.651 142.938 453.477 143.391 454.518 143.913C455.557 144.437 456.588 144.618 457.789 145.006C458.992 145.391 460.484 145.187 461.871 145.288C463.257 145.389 464.04 144.838 465.446 144.636C466.852 144.436 466.293 142.929 467.609 142.435C468.923 141.94 469.455 143.631 469.95 144.436C470.445 145.241 471.693 146.371 470.965 147.427C470.238 148.486 468.633 148.004 468.28 146.924Z" stroke="#BC3C2E" stroke-width="0.3"/>
<path d="M452.189 118.288C449.13 117.906 447.502 121.243 446.732 123.603C445.96 125.962 446.283 130.394 449.462 130.833C452.64 131.272 454.243 128.047 455.008 125.606C455.773 123.167 455.437 118.694 452.189 118.288Z" stroke="#181717" stroke-width="0.3"/>
<path d="M473.598 123.606C470.58 123.116 468.735 126.381 468.006 128.786C467.276 131.192 467.621 135.659 470.779 136.106C473.938 136.554 475.543 133.338 476.282 130.926C477.019 128.514 476.725 124.113 473.598 123.606Z" stroke="#181717" stroke-width="0.3"/>
<path d="M428.598 133.151C428.598 132.47 428.598 131.788 428.598 131.106C428.537 131.74 428.535 132.508 428.598 133.151Z" stroke="#DA9B95" stroke-width="0.3"/>
<path d="M468.28 146.924C468.633 148.004 470.238 148.486 470.965 147.427C471.693 146.371 470.445 145.241 469.95 144.436C469.455 143.631 468.924 141.94 467.609 142.435C466.293 142.929 466.852 144.436 465.446 144.636C464.04 144.838 463.258 145.389 461.871 145.288C460.484 145.187 458.992 145.391 457.789 145.006C456.588 144.618 455.557 144.437 454.518 143.913C453.478 143.391 452.651 142.938 451.746 142.322C450.84 141.706 450.363 141.007 449.564 140.276C448.765 139.546 448.211 138.239 446.902 138.637C445.593 139.036 445.8 140.606 446.564 141.367C447.329 142.128 447.75 143.009 448.612 143.683C449.474 144.356 450.178 144.943 451.087 145.571C451.995 146.2 452.904 146.455 453.93 146.956C454.957 147.456 456.045 147.779 457.225 148.025C458.403 148.271 459.902 148.466 461.189 148.424C462.476 148.382 463.856 148.198 465.052 147.924C466.247 147.65 467.117 147.191 468.28 146.924Z" stroke="#191817" stroke-width="0.3"/>
<path d="M428.053 155.651C428.053 154.878 428.053 154.106 428.053 153.333C427.983 154.053 427.982 154.922 428.053 155.651Z" stroke="#D8968D" stroke-width="0.3"/>
<path d="M488.325 158.924C488.325 158.413 488.23 157.844 488.189 157.424C488.189 157.935 488.284 158.504 488.325 158.924Z" stroke="#E49D91" stroke-width="0.3"/>
<path d="M443.871 164.106C443.973 163.044 444 161.771 443.871 160.697C443.894 161.833 443.871 162.97 443.871 164.106Z" stroke="#D99792" stroke-width="0.3"/>
<path d="M454.098 170.106C454.168 169.383 454.235 168.476 454.235 167.651C454.165 168.374 454.098 169.281 454.098 170.106Z" stroke="#E8A8A2" stroke-width="0.3"/>
<path d="M472.234 171.742C472.234 170.651 472.234 169.56 472.234 168.469C472.136 169.489 472.135 170.713 472.234 171.742Z" stroke="#DB9E9A" stroke-width="0.3"/>
<path d="M465.144 173.924C465.183 173.514 465.28 172.935 465.28 172.424C465.24 172.835 465.144 173.413 465.144 173.924Z" stroke="#BC3C2E" stroke-width="0.3"/>
<g filter="url(#filter0_d_101_3)">
<path d="M428.598 131.106C428.598 131.788 428.598 132.47 428.598 133.151C428.598 136.541 428.95 139.998 428.734 143.379C428.519 146.759 428.052 149.968 428.052 153.333C428.052 154.106 428.052 154.878 428.052 155.651C428.052 157.895 428.332 160.349 430.613 161.409C432.895 162.47 434.702 159.898 435.017 157.979C435.333 156.061 434.568 152.193 436.688 151.333C438.809 150.472 440.196 153.456 441.587 154.663C442.976 155.87 443.834 158.838 443.871 160.697C444 161.771 443.973 163.044 443.871 164.106C443.871 167.394 443.078 171.388 443.826 174.515C444.574 177.64 447.873 179.24 450.794 177.847C453.715 176.455 454.098 172.982 454.098 170.106C454.098 169.281 454.165 168.374 454.234 167.651C454.234 164.773 454.707 161.474 457.36 159.731C460.013 157.99 463.155 159.781 464.145 162.65C465.135 165.519 465.28 169.222 465.28 172.424C465.28 172.936 465.183 173.514 465.143 173.924C465.143 177.41 464.489 181.616 464.179 184.96C463.868 188.302 463.024 192.374 465.314 195.026C467.603 197.679 471.741 196.668 473.01 193.518C474.281 190.37 473.426 186.363 473.052 182.924C472.679 179.485 472.234 175.322 472.234 171.742C472.135 170.713 472.136 169.49 472.234 168.47C472.234 165.419 472.013 161.459 474.859 159.504C477.707 157.55 480.585 161.113 480.416 164.242C480.247 167.372 480.056 171.902 479.734 175.015C479.412 178.128 480.03 181.831 482.86 183.481C485.691 185.129 489.057 183.11 489.692 179.927C490.327 176.746 489.697 172.702 489.28 169.424C488.862 166.146 488.325 162.329 488.325 158.924C488.284 158.504 488.189 157.936 488.189 157.424C488.189 151.696 488.89 145.521 490.372 140.244C491.854 134.966 492.036 128.08 490.75 122.954C489.462 117.83 487.352 114.226 483.996 110.345C480.638 106.464 477.192 104.417 472.6 102.377C468.007 100.337 460.972 99.5119 455.871 100.288C450.769 101.065 446.024 102.787 441.921 105.701C437.816 108.616 435.165 111.481 432.678 115.822C430.192 120.166 428.598 125.935 428.598 131.106ZM452.189 118.288C455.437 118.694 455.772 123.167 455.007 125.606C454.242 128.047 452.64 131.272 449.462 130.833C446.283 130.394 445.96 125.962 446.732 123.603C447.502 121.243 449.13 117.906 452.189 118.288ZM473.598 123.606C476.725 124.113 477.019 128.514 476.282 130.926C475.542 133.338 473.937 136.554 470.779 136.106C467.621 135.659 467.276 131.192 468.006 128.786C468.735 126.381 470.58 123.116 473.598 123.606ZM468.28 146.924C467.117 147.191 466.247 147.65 465.052 147.924C463.856 148.198 462.476 148.382 461.189 148.424C459.902 148.466 458.403 148.271 457.225 148.025C456.045 147.779 454.957 147.456 453.93 146.956C452.903 146.455 451.995 146.2 451.087 145.571C450.177 144.943 449.474 144.356 448.612 143.683C447.75 143.009 447.329 142.128 446.564 141.367C445.8 140.606 445.593 139.036 446.902 138.637C448.211 138.239 448.765 139.546 449.564 140.276C450.363 141.007 450.84 141.706 451.746 142.322C452.651 142.938 453.477 143.391 454.518 143.913C455.557 144.437 456.588 144.618 457.789 145.006C458.992 145.391 460.484 145.187 461.871 145.288C463.257 145.389 464.04 144.838 465.446 144.636C466.852 144.436 466.293 142.929 467.609 142.435C468.923 141.94 469.455 143.631 469.95 144.436C470.445 145.241 471.693 146.371 470.965 147.427C470.238 148.486 468.633 148.004 468.28 146.924Z" fill="#BC3C2E" stroke="#BC3C2E"/>
</g>
<path d="M452.189 118.288C449.13 117.906 447.502 121.243 446.732 123.603C445.96 125.962 446.283 130.394 449.462 130.833C452.64 131.272 454.243 128.047 455.008 125.606C455.773 123.167 455.437 118.694 452.189 118.288Z" fill="#181717" stroke="black"/>
<path d="M473.598 123.606C470.58 123.116 468.735 126.381 468.006 128.786C467.276 131.192 467.621 135.659 470.779 136.106C473.938 136.554 475.543 133.338 476.282 130.926C477.019 128.514 476.725 124.113 473.598 123.606Z" fill="#181717" stroke="black"/>
<path d="M468.28 146.924C468.633 148.004 470.238 148.486 470.965 147.427C471.693 146.371 470.445 145.241 469.95 144.436C469.455 143.631 468.924 141.94 467.609 142.435C466.293 142.929 466.852 144.436 465.446 144.636C464.04 144.838 463.258 145.389 461.871 145.288C460.484 145.187 458.992 145.391 457.789 145.006C456.588 144.618 455.557 144.437 454.518 143.913C453.478 143.391 452.651 142.938 451.746 142.322C450.84 141.706 450.363 141.007 449.564 140.276C448.765 139.546 448.211 138.239 446.902 138.637C445.593 139.036 445.8 140.606 446.564 141.367C447.329 142.128 447.75 143.009 448.612 143.683C449.474 144.356 450.178 144.943 451.087 145.571C451.995 146.2 452.904 146.455 453.93 146.956C454.957 147.456 456.045 147.779 457.225 148.025C458.403 148.271 459.902 148.466 461.189 148.424C462.476 148.382 463.856 148.198 465.052 147.924C466.247 147.65 467.117 147.191 468.28 146.924Z" fill="#191817" stroke="black"/>
<defs>
<filter id="filter0_d_101_3" x="423.552" y="99.5" width="72.5571" height="105.552" filterUnits="userSpaceOnUse" color-interpolation-filters="sRGB">
<feFlood flood-opacity="0" result="BackgroundImageFix"/>
<feColorMatrix in="SourceAlpha" type="matrix" values="0 0 0 0 0 0 0 0 0 0 0 0 0 0 0 0 0 0 127 0" result="hardAlpha"/>
<feOffset dy="4"/>
<feGaussianBlur stdDeviation="2"/>
<feComposite in2="hardAlpha" operator="out"/>
<feColorMatrix type="matrix" values="0 0 0 0 0 0 0 0 0 0 0 0 0 0 0 0 0 0 0.5 0"/>
<feBlend mode="normal" in2="BackgroundImageFix" result="effect1_dropShadow_101_3"/>
<feBlend mode="normal" in="SourceGraphic" in2="effect1_dropShadow_101_3" result="shape"/>
</filter>
<linearGradient id="paint0_linear_101_3" x1="256" y1="0" x2="256" y2="512" gradientUnits="userSpaceOnUse">
<stop stop-color="#9F4139"/>
<stop offset="0.5" stop-color="#913121"/>
<stop offset="1" stop-color="#701212"/>
</linearGradient>
</defs>
</svg>
